<svg width="181" height="50" viewBox="0 0 181 50" fill="none" xmlns="http://www.w3.org/2000/svg">
<path d="M55.836 24.2667V22.2667H53.8138V12H55.836V9.97778H62.1027V12H64.1471V16.2222H61.8805V12.2222H56.0582V22.0444H61.8805V18H64.1471V22.2667H62.1027V24.2667H55.836ZM67.9457 24.2667V14H69.968V12H71.968V9.97778H74.2346V12H76.2346V14H78.2791V24.2667H76.0124V20.2444H70.1902V24.2667H67.9457ZM70.1902 18H76.0124V14.2222H74.0124V12.2222H72.1902V14.2222H70.1902V18ZM82.0777 24.2667V12H84.0999V9.97778H86.3221V12.2222H84.3221V16.0222H86.0999V14H88.1444V12H90.1444V9.97778H92.411V12.2222H90.3666V14.2222H88.3666V16.2222H86.3221V18H88.3666V20.0222H90.3666V22.0444H92.411V24.2667H90.1444V22.2667H88.1444V20.2444H86.0999V18.2222H84.3221V24.2667H82.0777ZM97.5591 24.2667V22.2667H95.5369V12H97.5591V9.97778H103.826V12H105.87V14.2222H103.604V12.2222H97.7813V16.0222H101.826V18.2222H97.7813V22.0444H103.604V20.0222H105.87V22.2667H103.826V24.2667H97.5591ZM117.251 24.2667V22.2667H115.229V16.0222H117.251V14H123.518V16.0222H125.562V18.2222H123.295V16.2222H117.473V22.0444H123.295V20.0222H125.562V22.2667H123.518V24.2667H117.251ZM130.71 24.2667V22.2667H128.688V16.0222H130.71V14H136.977V16.0222H139.021V22.2667H136.977V24.2667H130.71ZM130.932 22.0444H136.755V16.2222H130.932V22.0444ZM142.82 24.2667V14H151.109V16.0222H153.153V24.2667H150.887V16.2222H145.064V24.2667H142.82ZM156.518 24.2667V12H158.54V9.97778H164.807V12H166.851V14.2222H164.584V12.2222H158.762V16.0222H162.807V18.2222H158.762V24.2667H156.518Z" fill="white"/>
<path d="M57.945 27.5815V40.1055H56.9256V28.875L53.5334 30.1343V29.1663L57.7737 27.5815H57.945ZM64.6693 39.3002H64.892C65.8 39.3002 66.5596 39.1689 67.1706 38.9062C67.7817 38.6378 68.27 38.2694 68.6355 37.8011C69.0067 37.3271 69.2722 36.7732 69.4322 36.1393C69.5921 35.5053 69.672 34.8172 69.672 34.0748V32.3358C69.672 31.679 69.6006 31.1022 69.4579 30.6054C69.3151 30.1086 69.1123 29.6945 68.8496 29.3633C68.5869 29.0263 68.2757 28.7722 67.9159 28.6009C67.5618 28.4296 67.1678 28.3439 66.7338 28.3439C66.3054 28.3439 65.9171 28.4353 65.5687 28.618C65.2261 28.8008 64.9348 29.0549 64.695 29.3804C64.4608 29.7002 64.2781 30.0686 64.1467 30.4855C64.0211 30.8967 63.9583 31.3335 63.9583 31.7961C63.9583 32.2187 64.0154 32.6299 64.1296 33.0297C64.2495 33.4237 64.4237 33.7807 64.6521 34.1005C64.8806 34.4146 65.1604 34.6658 65.4916 34.8543C65.8286 35.0371 66.2169 35.1284 66.6567 35.1284C67.1535 35.1284 67.5932 35.0342 67.9759 34.8457C68.3642 34.6573 68.6926 34.4146 68.961 34.1176C69.2351 33.8149 69.4436 33.4894 69.5863 33.141C69.7348 32.787 69.8148 32.4443 69.8262 32.1131L70.3402 32.1045C70.3402 32.6242 70.2431 33.121 70.0489 33.5951C69.8605 34.0633 69.5921 34.4802 69.2437 34.8457C68.901 35.2055 68.4984 35.4911 68.0358 35.7024C67.5733 35.9137 67.0736 36.0193 66.5367 36.0193C65.9542 36.0193 65.4374 35.9051 64.9862 35.6767C64.5408 35.4425 64.1667 35.1284 63.864 34.7344C63.5671 34.3346 63.3415 33.8863 63.1873 33.3895C63.0331 32.8926 62.956 32.3758 62.956 31.839C62.956 31.2393 63.0388 30.6768 63.2044 30.1514C63.3758 29.6203 63.6242 29.1548 63.9497 28.7551C64.2752 28.3496 64.6693 28.0326 65.1319 27.8042C65.6001 27.5758 66.1284 27.4616 66.7166 27.4616C67.3848 27.4616 67.9673 27.5843 68.4642 27.8299C68.961 28.0698 69.3722 28.4124 69.6977 28.8579C70.0289 29.3033 70.2745 29.8287 70.4344 30.4341C70.6 31.0394 70.6828 31.7076 70.6828 32.4386V33.4237C70.6828 34.1604 70.6257 34.8657 70.5115 35.5396C70.3973 36.2135 70.206 36.836 69.9376 37.4071C69.6749 37.9725 69.3208 38.4636 68.8753 38.8805C68.4299 39.2974 67.8788 39.6229 67.222 39.857C66.5653 40.0855 65.7886 40.1997 64.892 40.1997H64.6607L64.6693 39.3002ZM76.6961 34.1604V35.0428H72.5928V34.1604H76.6961ZM86.5384 39.2231V40.1055H78.7345V39.3088L82.8207 34.6744C83.3289 34.0976 83.7344 33.5922 84.0371 33.1582C84.3398 32.7184 84.5568 32.3187 84.6881 31.9589C84.8252 31.5934 84.8937 31.2393 84.8937 30.8967C84.8937 30.3941 84.7938 29.9515 84.5939 29.5689C84.3997 29.1862 84.1085 28.8864 83.7201 28.6694C83.3318 28.4524 82.8521 28.3439 82.281 28.3439C81.7099 28.3439 81.213 28.4667 80.7904 28.7122C80.3678 28.9578 80.0423 29.3005 79.8139 29.7402C79.5911 30.1742 79.4798 30.6682 79.4798 31.2222H78.4604C78.4604 30.5369 78.6117 29.9087 78.9144 29.3376C79.2228 28.7665 79.6625 28.3125 80.2336 27.9755C80.8047 27.6329 81.4872 27.4616 82.281 27.4616C83.0348 27.4616 83.683 27.5958 84.2255 27.8642C84.7681 28.1269 85.185 28.5066 85.4762 29.0035C85.7732 29.5003 85.9217 30.1 85.9217 30.8024C85.9217 31.1793 85.8531 31.5591 85.7161 31.9417C85.5847 32.3244 85.402 32.707 85.1678 33.0896C84.9394 33.4666 84.6767 33.8406 84.3797 34.2118C84.0885 34.583 83.7829 34.9485 83.4631 35.3083L79.9852 39.2231H86.5384ZM96.3294 32.7984V34.8971C96.3294 35.8109 96.2438 36.6075 96.0724 37.2871C95.9011 37.961 95.6498 38.5207 95.3186 38.9661C94.9931 39.4059 94.5933 39.7343 94.1193 39.9513C93.651 40.1683 93.1142 40.2768 92.5088 40.2768C92.0291 40.2768 91.5894 40.2083 91.1896 40.0712C90.7899 39.9341 90.4329 39.7257 90.1188 39.4459C89.8104 39.1603 89.5477 38.8034 89.3307 38.3751C89.1137 37.9468 88.9481 37.4442 88.8339 36.8674C88.7197 36.2849 88.6626 35.6281 88.6626 34.8971V32.7984C88.6626 31.8789 88.7482 31.0851 88.9195 30.4169C89.0966 29.7488 89.3479 29.1948 89.6734 28.7551C90.0046 28.3153 90.4072 27.9898 90.8812 27.7785C91.3552 27.5615 91.8921 27.453 92.4917 27.453C92.9714 27.453 93.4112 27.5244 93.8109 27.6671C94.2164 27.8042 94.5733 28.0098 94.8817 28.2839C95.1958 28.558 95.4585 28.9093 95.6698 29.3376C95.8868 29.7602 96.0496 30.2599 96.1581 30.8367C96.2723 31.4135 96.3294 32.0674 96.3294 32.7984ZM95.31 35.0171V32.6699C95.31 32.1045 95.2701 31.5905 95.1901 31.1279C95.1159 30.6654 95.0045 30.2599 94.856 29.9115C94.7075 29.5632 94.5191 29.2719 94.2906 29.0378C94.0679 28.8036 93.8052 28.6294 93.5025 28.5152C93.2056 28.3953 92.8686 28.3353 92.4917 28.3353C92.0291 28.3353 91.6208 28.4296 91.2667 28.618C90.9184 28.8008 90.6271 29.0749 90.393 29.4404C90.1588 29.8002 89.9818 30.2513 89.8618 30.7939C89.7476 31.3364 89.6905 31.9617 89.6905 32.6699V35.0171C89.6905 35.5767 89.7276 36.0879 89.8019 36.5504C89.8761 37.0073 89.9903 37.4128 90.1445 37.7669C90.2987 38.1209 90.4872 38.4208 90.7099 38.6663C90.9383 38.9062 91.201 39.0889 91.498 39.2146C91.8007 39.3345 92.1376 39.3945 92.5088 39.3945C92.9828 39.3945 93.394 39.3002 93.7424 39.1118C94.0908 38.9176 94.382 38.6349 94.6162 38.2637C94.8503 37.8868 95.0245 37.4271 95.1387 36.8845C95.2529 36.3363 95.31 35.7138 95.31 35.0171ZM98.9675 39.4801C98.9675 39.2802 99.0303 39.1118 99.156 38.9747C99.2873 38.8319 99.4644 38.7606 99.6871 38.7606C99.9155 38.7606 100.095 38.8319 100.227 38.9747C100.358 39.1118 100.424 39.2802 100.424 39.4801C100.424 39.6743 100.358 39.8399 100.227 39.977C100.095 40.114 99.9155 40.1826 99.6871 40.1826C99.4644 40.1826 99.2873 40.114 99.156 39.977C99.0303 39.8399 98.9675 39.6743 98.9675 39.4801ZM110.96 32.7984V34.8971C110.96 35.8109 110.874 36.6075 110.703 37.2871C110.532 37.961 110.28 38.5207 109.949 38.9661C109.624 39.4059 109.224 39.7343 108.75 39.9513C108.282 40.1683 107.745 40.2768 107.139 40.2768C106.66 40.2768 106.22 40.2083 105.82 40.0712C105.42 39.9341 105.064 39.7257 104.749 39.4459C104.441 39.1603 104.178 38.8034 103.961 38.3751C103.744 37.9468 103.579 37.4442 103.465 36.8674C103.35 36.2849 103.293 35.6281 103.293 34.8971V32.7984C103.293 31.8789 103.379 31.0851 103.55 30.4169C103.727 29.7488 103.978 29.1948 104.304 28.7551C104.635 28.3153 105.038 27.9898 105.512 27.7785C105.986 27.5615 106.523 27.453 107.122 27.453C107.602 27.453 108.042 27.5244 108.442 27.6671C108.847 27.8042 109.204 28.0098 109.512 28.2839C109.826 28.558 110.089 28.9093 110.3 29.3376C110.517 29.7602 110.68 30.2599 110.789 30.8367C110.903 31.4135 110.96 32.0674 110.96 32.7984ZM109.941 35.0171V32.6699C109.941 32.1045 109.901 31.5905 109.821 31.1279C109.746 30.6654 109.635 30.2599 109.487 29.9115C109.338 29.5632 109.15 29.2719 108.921 29.0378C108.699 28.8036 108.436 28.6294 108.133 28.5152C107.836 28.3953 107.499 28.3353 107.122 28.3353C106.66 28.3353 106.251 28.4296 105.897 28.618C105.549 28.8008 105.258 29.0749 105.024 29.4404C104.789 29.8002 104.612 30.2513 104.492 30.7939C104.378 31.3364 104.321 31.9617 104.321 32.6699V35.0171C104.321 35.5767 104.358 36.0879 104.432 36.5504C104.507 37.0073 104.621 37.4128 104.775 37.7669C104.929 38.1209 105.118 38.4208 105.341 38.6663C105.569 38.9062 105.832 39.0889 106.129 39.2146C106.431 39.3345 106.768 39.3945 107.139 39.3945C107.613 39.3945 108.025 39.3002 108.373 39.1118C108.721 38.9176 109.013 38.6349 109.247 38.2637C109.481 37.8868 109.655 37.4271 109.769 36.8845C109.884 36.3363 109.941 35.7138 109.941 35.0171ZM114.934 39.3002H115.157C116.065 39.3002 116.825 39.1689 117.436 38.9062C118.047 38.6378 118.535 38.2694 118.901 37.8011C119.272 37.3271 119.537 36.7732 119.697 36.1393C119.857 35.5053 119.937 34.8172 119.937 34.0748V32.3358C119.937 31.679 119.866 31.1022 119.723 30.6054C119.58 30.1086 119.378 29.6945 119.115 29.3633C118.852 29.0263 118.541 28.7722 118.181 28.6009C117.827 28.4296 117.433 28.3439 116.999 28.3439C116.571 28.3439 116.182 28.4353 115.834 28.618C115.491 28.8008 115.2 29.0549 114.96 29.3804C114.726 29.7002 114.543 30.0686 114.412 30.4855C114.286 30.8967 114.223 31.3335 114.223 31.7961C114.223 32.2187 114.281 32.6299 114.395 33.0297C114.515 33.4237 114.689 33.7807 114.917 34.1005C115.146 34.4146 115.426 34.6658 115.757 34.8543C116.094 35.0371 116.482 35.1284 116.922 35.1284C117.419 35.1284 117.858 35.0342 118.241 34.8457C118.629 34.6573 118.958 34.4146 119.226 34.1176C119.5 33.8149 119.709 33.4894 119.852 33.141C120 32.787 120.08 32.4443 120.091 32.1131L120.605 32.1045C120.605 32.6242 120.508 33.121 120.314 33.5951C120.126 34.0633 119.857 34.4802 119.509 34.8457C119.166 35.2055 118.764 35.4911 118.301 35.7024C117.838 35.9137 117.339 36.0193 116.802 36.0193C116.219 36.0193 115.703 35.9051 115.251 35.6767C114.806 35.4425 114.432 35.1284 114.129 34.7344C113.832 34.3346 113.607 33.8863 113.453 33.3895C113.298 32.8926 113.221 32.3758 113.221 31.839C113.221 31.2393 113.304 30.6768 113.47 30.1514C113.641 29.6203 113.889 29.1548 114.215 28.7551C114.54 28.3496 114.934 28.0326 115.397 27.8042C115.865 27.5758 116.394 27.4616 116.982 27.4616C117.65 27.4616 118.233 27.5843 118.729 27.8299C119.226 28.0698 119.637 28.4124 119.963 28.8579C120.294 29.3033 120.54 29.8287 120.7 30.4341C120.865 31.0394 120.948 31.7076 120.948 32.4386V33.4237C120.948 34.1604 120.891 34.8657 120.777 35.5396C120.663 36.2135 120.471 36.836 120.203 37.4071C119.94 37.9725 119.586 38.4636 119.141 38.8805C118.695 39.2974 118.144 39.6229 117.487 39.857C116.831 40.0855 116.054 40.1997 115.157 40.1997H114.926L114.934 39.3002ZM123.68 39.4801C123.68 39.2802 123.743 39.1118 123.869 38.9747C124 38.8319 124.177 38.7606 124.4 38.7606C124.628 38.7606 124.808 38.8319 124.94 38.9747C125.071 39.1118 125.137 39.2802 125.137 39.4801C125.137 39.6743 125.071 39.8399 124.94 39.977C124.808 40.114 124.628 40.1826 124.4 40.1826C124.177 40.1826 124 40.114 123.869 39.977C123.743 39.8399 123.68 39.6743 123.68 39.4801ZM135.964 39.2231V40.1055H128.16V39.3088L132.246 34.6744C132.755 34.0976 133.16 33.5922 133.463 33.1582C133.765 32.7184 133.982 32.3187 134.114 31.9589C134.251 31.5934 134.319 31.2393 134.319 30.8967C134.319 30.3941 134.219 29.9515 134.02 29.5689C133.825 29.1862 133.534 28.8864 133.146 28.6694C132.757 28.4524 132.278 28.3439 131.707 28.3439C131.136 28.3439 130.639 28.4667 130.216 28.7122C129.794 28.9578 129.468 29.3005 129.24 29.7402C129.017 30.1742 128.905 30.6682 128.905 31.2222H127.886C127.886 30.5369 128.037 29.9087 128.34 29.3376C128.649 28.7665 129.088 28.3125 129.659 27.9755C130.23 27.6329 130.913 27.4616 131.707 27.4616C132.461 27.4616 133.109 27.5958 133.651 27.8642C134.194 28.1269 134.611 28.5066 134.902 29.0035C135.199 29.5003 135.347 30.1 135.347 30.8024C135.347 31.1793 135.279 31.5591 135.142 31.9417C135.01 32.3244 134.828 32.707 134.594 33.0896C134.365 33.4666 134.102 33.8406 133.805 34.2118C133.514 34.583 133.209 34.9485 132.889 35.3083L129.411 39.2231H135.964ZM145.755 32.7984V34.8971C145.755 35.8109 145.669 36.6075 145.498 37.2871C145.327 37.961 145.076 38.5207 144.744 38.9661C144.419 39.4059 144.019 39.7343 143.545 39.9513C143.077 40.1683 142.54 40.2768 141.935 40.2768C141.455 40.2768 141.015 40.2083 140.615 40.0712C140.216 39.9341 139.859 39.7257 139.545 39.4459C139.236 39.1603 138.973 38.8034 138.756 38.3751C138.539 37.9468 138.374 37.4442 138.26 36.8674C138.145 36.2849 138.088 35.6281 138.088 34.8971V32.7984C138.088 31.8789 138.174 31.0851 138.345 30.4169C138.522 29.7488 138.774 29.1948 139.099 28.7551C139.43 28.3153 139.833 27.9898 140.307 27.7785C140.781 27.5615 141.318 27.453 141.917 27.453C142.397 27.453 142.837 27.5244 143.237 27.6671C143.642 27.8042 143.999 28.0098 144.307 28.2839C144.622 28.558 144.884 28.9093 145.096 29.3376C145.313 29.7602 145.475 30.2599 145.584 30.8367C145.698 31.4135 145.755 32.0674 145.755 32.7984ZM144.736 35.0171V32.6699C144.736 32.1045 144.696 31.5905 144.616 31.1279C144.542 30.6654 144.43 30.2599 144.282 29.9115C144.133 29.5632 143.945 29.2719 143.716 29.0378C143.494 28.8036 143.231 28.6294 142.928 28.5152C142.631 28.3953 142.294 28.3353 141.917 28.3353C141.455 28.3353 141.047 28.4296 140.692 28.618C140.344 28.8008 140.053 29.0749 139.819 29.4404C139.585 29.8002 139.407 30.2513 139.288 30.7939C139.173 31.3364 139.116 31.9617 139.116 32.6699V35.0171C139.116 35.5767 139.153 36.0879 139.228 36.5504C139.302 37.0073 139.416 37.4128 139.57 37.7669C139.724 38.1209 139.913 38.4208 140.136 38.6663C140.364 38.9062 140.627 39.0889 140.924 39.2146C141.226 39.3345 141.563 39.3945 141.935 39.3945C142.409 39.3945 142.82 39.3002 143.168 39.1118C143.516 38.9176 143.808 38.6349 144.042 38.2637C144.276 37.8868 144.45 37.4271 144.564 36.8845C144.679 36.3363 144.736 35.7138 144.736 35.0171ZM156.129 39.2231V40.1055H148.325V39.3088L152.411 34.6744C152.919 34.0976 153.325 33.5922 153.627 33.1582C153.93 32.7184 154.147 32.3187 154.278 31.9589C154.415 31.5934 154.484 31.2393 154.484 30.8967C154.484 30.3941 154.384 29.9515 154.184 29.5689C153.99 29.1862 153.699 28.8864 153.31 28.6694C152.922 28.4524 152.442 28.3439 151.871 28.3439C151.3 28.3439 150.803 28.4667 150.381 28.7122C149.958 28.9578 149.632 29.3005 149.404 29.7402C149.181 30.1742 149.07 30.6682 149.07 31.2222H148.051C148.051 30.5369 148.202 29.9087 148.505 29.3376C148.813 28.7665 149.253 28.3125 149.824 27.9755C150.395 27.6329 151.077 27.4616 151.871 27.4616C152.625 27.4616 153.273 27.5958 153.816 27.8642C154.358 28.1269 154.775 28.5066 155.066 29.0035C155.363 29.5003 155.512 30.1 155.512 30.8024C155.512 31.1793 155.443 31.5591 155.306 31.9417C155.175 32.3244 154.992 32.707 154.758 33.0896C154.53 33.4666 154.267 33.8406 153.97 34.2118C153.679 34.583 153.373 34.9485 153.053 35.3083L149.575 39.2231H156.129ZM159.906 33.9377L159.101 33.7064L159.709 27.6329H165.945V28.5923H160.583L160.146 32.7898C160.363 32.6356 160.677 32.4843 161.088 32.3358C161.505 32.1816 161.973 32.1045 162.493 32.1045C163.047 32.1045 163.55 32.1987 164.001 32.3872C164.458 32.5699 164.849 32.8384 165.174 33.1924C165.5 33.5408 165.751 33.9634 165.928 34.4603C166.105 34.9514 166.194 35.5082 166.194 36.1307C166.194 36.7303 166.119 37.2814 165.971 37.784C165.823 38.2865 165.597 38.7263 165.294 39.1032C164.992 39.4744 164.606 39.7628 164.138 39.9684C163.67 40.174 163.113 40.2768 162.467 40.2768C161.971 40.2768 161.502 40.2083 161.062 40.0712C160.628 39.9284 160.24 39.7143 159.897 39.4287C159.555 39.1432 159.275 38.7834 159.058 38.3494C158.847 37.9153 158.715 37.4071 158.664 36.8246H159.649C159.718 37.3842 159.869 37.8554 160.103 38.238C160.337 38.6206 160.651 38.909 161.045 39.1032C161.445 39.2974 161.919 39.3945 162.467 39.3945C162.913 39.3945 163.301 39.3231 163.632 39.1803C163.969 39.0375 164.249 38.8291 164.472 38.555C164.7 38.2751 164.872 37.9353 164.986 37.5356C165.106 37.1301 165.166 36.6675 165.166 36.1478C165.166 35.7024 165.103 35.294 164.977 34.9228C164.852 34.5459 164.666 34.2175 164.421 33.9377C164.181 33.6522 163.884 33.4323 163.53 33.2781C163.176 33.1239 162.77 33.0468 162.313 33.0468C161.719 33.0468 161.245 33.1268 160.891 33.2867C160.543 33.4466 160.214 33.6636 159.906 33.9377Z" fill="white"/>
<g clip-path="url(#clip0_603_273)">
<path fill-rule="evenodd" clip-rule="evenodd" d="M42.6091 42.7634C41.5641 43.7993 40.4234 44.7472 39.1967 45.5928C34.0995 49.1064 27.8801 50.6043 21.7421 49.7964C15.6041 48.9885 9.98401 45.9324 5.96957 41.2194C1.95513 36.5065 -0.16824 30.4719 0.0104239 24.2835C0.189087 18.0952 2.65708 12.1931 6.93674 7.71962C11.2164 3.24613 17.0034 0.51931 23.1778 0.0668952C29.3522 -0.385519 35.4749 1.46864 40.3609 5.27053C41.1545 5.88803 41.9063 6.54978 42.6135 7.25123C42.1896 7.52991 41.7876 7.85565 41.4148 8.22844C39.8786 9.76464 39.1414 11.7973 39.2033 13.81C38.775 14.07 38.3708 14.385 38.0007 14.7551C36.9765 15.7793 36.3738 17.0652 36.1925 18.3976C35.3687 17.0027 34.2844 15.7624 32.9842 14.7508C30.4453 12.7752 27.2639 11.8118 24.0556 12.0469C20.8473 12.2819 17.8403 13.6988 15.6165 16.0233C13.3927 18.3478 12.1103 21.4146 12.0175 24.6302C11.9247 27.8457 13.028 30.9814 15.114 33.4303C17.1999 35.8792 20.1202 37.4672 23.3096 37.887C26.499 38.3068 29.7307 37.5285 32.3793 35.7028C33.9305 34.6334 35.2172 33.2493 36.1662 31.6571C36.3081 33.0683 36.9196 34.4411 38.0007 35.5222C38.3697 35.8913 38.7728 36.2056 39.1998 36.4652C39.2058 38.3928 39.9441 40.3185 41.4148 41.7891C41.7863 42.1606 42.1868 42.4854 42.6091 42.7634ZM49.2808 20.7093C49.3933 20.6697 49.505 20.6273 49.6159 20.5822L49.6276 20.6479L49.2808 20.7093Z" fill="#009402"/>
<line x1="31.5784" y1="5.61407" x2="27.1932" y2="8.59979" stroke="#E852A2" stroke-width="1.34503" stroke-linecap="round"/>
<line x1="19.8736" y1="7.88765" x2="14.7492" y2="6.51456" stroke="#FFD700" stroke-width="1.34503" stroke-linecap="round"/>
<line x1="12.2816" y1="14.5613" x2="7.89629" y2="17.5471" stroke="#E852A2" stroke-width="1.34503" stroke-linecap="round"/>
<line x1="8.91922" y1="28.1094" x2="4.32478" y2="25.4568" stroke="#FFD700" stroke-width="1.34503" stroke-linecap="round"/>
<line x1="11.8714" y1="34.6199" x2="7.48614" y2="37.6057" stroke="#E852A2" stroke-width="1.34503" stroke-linecap="round"/>
<line x1="19.8736" y1="42.5068" x2="14.7492" y2="41.1337" stroke="#FFD700" stroke-width="1.34503" stroke-linecap="round"/>
<line x1="31.3441" y1="42.1063" x2="26.9588" y2="45.092" stroke="#E852A2" stroke-width="1.34503" stroke-linecap="round"/>
</g>
<defs>
<clipPath id="clip0_603_273">
<rect width="51.5205" height="50" fill="white"/>
</clipPath>
</defs>
</svg>
